<?xml version="1.0" encoding="UTF-8"?>
<svg width="98" height="96" viewBox="0 0 98 96" xmlns="http://www.w3.org/2000/svg" role="img" aria-label="GitHub">
  <title>GitHub</title>
  <path fill="#FFFFFF" d="M48.854 0C21.868 0 0 22.385 0 50.032c0 22.129 14.18 40.866 33.84 47.47 2.474.482 3.381-1.108 3.381-2.463 0-1.216-.045-5.243-.066-9.508-13.76 3.08-16.666-5.97-16.666-5.97-2.25-5.89-5.5-7.46-5.5-7.46-4.503-3.21.34-3.148.34-3.148 4.98.365 7.6 5.29 7.6 5.29 4.424 7.78 11.61 5.534 14.44 4.232.45-3.298 1.73-5.532 3.15-6.804-10.985-1.29-22.53-5.686-22.53-25.3 0-5.59 1.96-10.16 5.19-13.74-.52-1.292-2.25-6.5.5-13.55 0 0 4.24-1.39 13.9 5.25 4.03-1.15 8.35-1.73 12.65-1.75 4.29.02 8.61.6 12.64 1.75 9.66-6.64 13.89-5.25 13.89-5.25 2.76 7.05 1.04 12.26.51 13.55 3.23 3.58 5.18 8.15 5.18 13.74 0 19.66-11.56 24-22.57 25.27 1.78 1.61 3.37 4.77 3.37 9.63 0 6.96-.06 12.57-.06 14.28 0 1.37.9 2.98 3.41 2.47 19.64-6.61 33.81-25.34 33.81-47.47C97.71 22.39 75.84 0 48.854 0z"/>
</svg>
